
<svg xmlns="http://www.w3.org/2000/svg" viewBox="0 0 260 280" role="img" aria-label="TheTilt">
  <defs>
    <radialGradient id="tt-icon-cream" cx="0.5" cy="0.4" r="0.7">
      <stop offset="0%" stop-color="#F8EFD4"></stop>
      <stop offset="100%" stop-color="#E0D2A8"></stop>
    </radialGradient>
  </defs>
  
  <path d="M 30 30 H 230 V 170 Q 230 250 130 280 Q 30 250 30 170 Z" fill="#1A2B4A" stroke="#1A1A1A" stroke-width="3"></path>
  
  <rect x="30" y="30" width="200" height="28" fill="#F0E4C2"></rect>
  <rect x="55" y="30" width="25" height="14" fill="#1A2B4A"></rect>
  <rect x="105" y="30" width="25" height="14" fill="#1A2B4A"></rect>
  <rect x="155" y="30" width="25" height="14" fill="#1A2B4A"></rect>
  <rect x="205" y="30" width="25" height="14" fill="#1A2B4A"></rect>
  <rect x="30" y="44" width="25" height="14" fill="#1A2B4A"></rect>
  <rect x="80" y="44" width="25" height="14" fill="#1A2B4A"></rect>
  <rect x="130" y="44" width="25" height="14" fill="#1A2B4A"></rect>
  <rect x="180" y="44" width="25" height="14" fill="#1A2B4A"></rect>
  <line x1="30" y1="58" x2="230" y2="58" stroke="#C9A961" stroke-width="2"></line>
  
  <g transform="translate(130 168)">
    <circle r="68" fill="url(#tt-icon-cream)" stroke="#1A1A1A" stroke-width="2.5"></circle>
    <circle r="62" fill="none" stroke="#1A2B4A" stroke-width="0.8"></circle>
    <g stroke="#1A2B4A" stroke-width="1" fill="none">
      <g transform="rotate(-60)"><line x1="0" y1="-64" x2="0" y2="-55"></line></g>
      <g transform="rotate(-30)"><line x1="0" y1="-64" x2="0" y2="-55"></line></g>
      <g transform="rotate(30)"><line x1="0" y1="-64" x2="0" y2="-55"></line></g>
      <g transform="rotate(60)"><line x1="0" y1="-64" x2="0" y2="-55"></line></g>
      <line x1="0" y1="-64" x2="0" y2="-50" stroke="#8B1A1A" stroke-width="2"></line>
    </g>
    <text x="0" y="-35" text-anchor="middle" font-family="ui-monospace, Menlo, monospace" font-size="8" fill="#1A2B4A" font-weight="700">0</text>
    <text x="-50" y="6" text-anchor="middle" font-family="ui-monospace, Menlo, monospace" font-size="7" fill="#8B1A1A" font-weight="700">−90</text>
    <text x="50" y="6" text-anchor="middle" font-family="ui-monospace, Menlo, monospace" font-size="7" fill="#1B5E20" font-weight="600">+90</text>
    <g transform="rotate(22)">
      <line x1="0" y1="0" x2="0" y2="-55" stroke="#8B1A1A" stroke-width="3.4" stroke-linecap="round"></line>
      <circle cx="0" cy="-55" r="4" fill="#8B1A1A"></circle>
      <line x1="0" y1="0" x2="0" y2="20" stroke="#1A2B4A" stroke-width="3.4" stroke-linecap="round"></line>
    </g>
    <circle r="5.5" fill="#1A2B4A"></circle>
    <circle r="1.6" fill="#F0E4C2"></circle>
  </g>
  
  <path d="M 30 30 H 230 V 170 Q 230 250 130 280 Q 30 250 30 170 Z" fill="none" stroke="#F0E4C2" stroke-width="0.8" opacity="0.5"></path>
</svg>