<?xml version="1.0" encoding="UTF-8" standalone="no"?>
<!-- Created with Inkscape (http://www.inkscape.org/) -->
<svg xmlns="http://www.w3.org/2000/svg" xml:space="preserve" width="297mm" height="719.564" viewBox="0 0 297 190.385"><path d="M57.459 74.541h297v190.385h-297z" style="fill:#660028;fill-opacity:1;stroke-width:1.90653;stroke-linecap:round;stroke-linejoin:round" transform="translate(-57.459 -74.541)"/><path d="M57.459 153.811h297v10.822h-297z" style="fill:#cfd2d3;fill-opacity:1;stroke-width:1.19835;stroke-linecap:round;stroke-linejoin:round" transform="translate(-57.459 -74.541)"/><path d="M57.459 175.091h297v10.822h-297z" style="fill:#5ea14d;fill-opacity:1;stroke-width:1.19835;stroke-linecap:round;stroke-linejoin:round" transform="translate(-57.459 -74.541)"/><path d="M103.98 28.238c15.042-4.508 28.781-12.488 41.727-21.148 13.507 8.67 27.49 17.215 43.145 21.483 16.555 3.828 33.66-.806 48.945-7.165C253.315 36.198 269.214 50.6 284.7 65.42c-5.039 7.907-9.315 16.379-11.93 25.384a80.9 80.9 0 0 0-2.318 25.802c2.985 26.252 8.394 52.148 12.004 78.306 1.609 12.132 2.106 24.443 1.037 36.648-1.302 9.047-4.191 17.979-9.336 25.645-7.59 11.421-18.63 20.102-30.072 27.539-31.1 19.61-67.247 29.65-98.41 49.167-30.75-19.58-66.686-29.369-97.53-48.79-11.126-7.197-21.965-15.396-29.597-26.315-7.96-11.202-11.379-25.123-11.04-38.688.138-4.874-.265-9.8.487-14.642 3.027-28.773 9.368-57.106 12.829-85.837.423-8.356.794-16.88-1.133-25.112-2.043-9.507-6.224-18.46-11.357-26.712-.392-.878-1.535-1.945-.784-2.939 4.71-5.103 10.215-9.423 15.19-14.255 10.14-9.915 20.895-19.182 30.919-29.212 15.73 6.401 33.385 11.317 50.322 6.83" style="fill:#fff;stroke:none;stroke-width:.911332;stroke-linecap:round;stroke-linejoin:round" transform="translate(99.902 38.44)scale(.33286)"/><path fill="#951a42" d="M135.409 49.943c4.73-1.434 9.05-3.974 13.121-6.73 4.247 2.76 8.644 5.479 13.567 6.837 5.206 1.218 10.585-.256 15.392-2.28 4.88 4.706 9.879 9.29 14.749 14.007-1.585 2.516-2.93 5.212-3.752 8.078a26 26 0 0 0-.729 8.212c.94 8.354 2.64 16.596 3.775 24.92.506 3.862.663 7.78.326 11.664-.41 2.88-1.318 5.722-2.935 8.162-2.387 3.635-5.859 6.398-9.457 8.764-9.78 6.241-21.147 9.437-30.946 15.648-9.67-6.231-20.97-9.347-30.67-15.528-3.498-2.29-6.907-4.9-9.306-8.375-2.504-3.565-3.579-7.995-3.472-12.312.043-1.551-.083-3.12.153-4.66.952-9.157 2.946-18.174 4.034-27.318.133-2.66.25-5.372-.356-7.992-.642-3.026-1.957-5.875-3.572-8.501-.123-.28-.482-.62-.246-.936 1.481-1.624 3.212-2.999 4.777-4.536 3.188-3.156 6.57-6.105 9.722-9.297 4.947 2.037 10.499 3.601 15.825 2.173m.556 1.312c-5.346 1.568-11.028.183-16.051-1.85-4.35 4.276-8.857 8.387-13.268 12.601 2.127 3.455 3.712 7.33 4.031 11.407.48 4.168-.366 8.315-.939 12.43-1.005 6.75-2.433 13.45-3.042 20.25-.303 2.723-.522 5.48-.026 8.199.452 5.615 4.034 10.442 8.434 13.727 3.705 2.92 7.886 5.146 12.116 7.193l.12-.067c1.595.922 3.322 1.588 5.01 2.32-.373-1.42-.88-2.806-1.285-4.217a82 82 0 0 1-2.037-10.332c-.856-6.018-.69-12.123-.52-18.184.863-10.631 3.216-21.263 7.98-30.87a28 28 0 0 0-3.406 1.881q-.354-.523-.71-1.042c-.112.64.044 1.482-.625 1.864-1.478 1.046-2.962 2.097-4.28 3.349a83 83 0 0 1-.54-1.252c-.19 2.387-2.28 3.762-3.614 5.51-1.512 1.797-2.63 3.867-3.609 5.984-.06-2.626.18-5.279.743-7.845.818-3.559 2.982-6.684 5.735-9.03-.65-.337-.376-1.033-.373-1.602-.33.536-.67 1.072-1.015 1.598-1.295.076-2.57.33-3.812.695-.023-.28-.073-.838-.096-1.118-.596.706-1.069 1.608-1.987 1.937-1.808.796-3.462 1.871-5.14 2.896.516-2.263 1.928-4.237 3.642-5.762 3.119-2.766 7.26-4.21 11.397-4.363-.496-.373-1.055-.756-.656-1.448-.386.216-.812.645-1.278.33-1.088-.414-2.227-.65-3.365-.863.08-.21.243-.626.326-.835-1.598.998-3.522.419-5.279.592-2.084.27-4.227.23-6.228.952 3.695-3.522 8.645-6.204 13.874-5.978 3.9.093 7.51 2.084 10.292 4.717a56 56 0 0 0-1.039-2.264q.551-.109 1.102-.213c-1.534.047-2.39-1.335-2.91-2.583-1.464-.672-2.589-1.89-4.047-2.586-.982-.633-2.183-.812-3.142-1.471 2.75-.124 5.555.173 8.148 1.131 2.51.906 4.497 2.84 5.865 5.09 1.145-1.645 2.597-3.12 4.39-4.041 2.43-1.312 5.55-1.225 7.91.21a15.4 15.4 0 0 0-4.79 2.203c-.756.503-1.375 1.301-2.354 1.345l.576.28a16.6 16.6 0 0 0-1.005 2.23c2.11-.224 4.167-.876 6.311-.796 3.871-.15 8.308.749 10.758 4.028-.988-.393-2.03-.686-3.105-.656-1.299-.033-2.723.373-3.895-.403.143.293.28.586.42.879-1.319.1-2.56.572-3.845.825-.486-.183-.925-.466-1.375-.722l.69.939c-.597.24-1.192.496-1.742.835 4.148 1.235 8.239 3.825 9.876 8.009 1.232 2.78.87 5.865.822 8.817-.682-1.098-1.241-2.293-2.18-3.199-1.038-1.038-2.077-2.143-2.566-3.558l-.067-1.062c-.246.307-.482.62-.725.926-1.155-1.268-2.52-2.314-3.895-3.329-.116-.636-.226-1.275-.353-1.907-.116.472-.22.948-.326 1.421-.982-.536-1.957-1.092-2.969-1.574-.066-.163-.196-.496-.263-.66-.403.084-.805.16-1.208.24 2.376 3.342 3.095 7.61 2.936 11.634-.3 3.422-1.042 7.01-3.192 9.776.512-2.314.133-4.67-.233-6.974-.29-1.924-1.232-3.834-.63-5.801l-.775.36c-.32-1.386-.972-2.67-1.315-4.048.183-.69.506-1.332.752-2-.449.329-.855.708-1.248 1.098-.296-.733-.526-1.518-1.018-2.147-2.044 4.33-3.19 9.043-4.145 13.723-.895 5.067-1.574 10.203-1.487 15.355-.173 5.626.196 11.274 1.264 16.806.47 2.79 1.172 5.536 2.004 8.235.67 2.09 1.425 4.154 2.344 6.148a57 57 0 0 0 1.67 3.509c.843 1.444 1.615 2.949 2.63 4.287.876.842 2.027 1.338 3.066 1.954.592.439 1.158-.27 1.657-.54 2.12-1.284 4.384-2.31 6.541-3.518 3.302-1.451 6.604-2.922 9.86-4.47 4.85-2.044 9.61-4.384 13.933-7.403 2.656-1.874 5.21-3.988 7.083-6.67 2.42-3.253 3.472-7.383 3.395-11.398-.036-1.757.104-3.531-.21-5.269-.895-9.17-3.028-18.174-4.007-27.334-.093-2.437-.186-4.91.29-7.317.536-3.391 2.107-6.474 3.694-9.476-4.417-4.167-8.84-8.335-13.244-12.519-4.973 2.027-10.595 3.375-15.897 1.87-4.584-1.357-8.735-3.824-12.722-6.403-3.915 2.606-8.062 4.992-12.582 6.374"/><g fill="#00c0f3"><path d="M135.965 51.255c4.52-1.382 8.667-3.768 12.582-6.374 3.987 2.58 8.138 5.046 12.722 6.404 5.302 1.504 10.924.156 15.897-1.87 4.404 4.183 8.827 8.35 13.244 12.518-1.587 3.002-3.158 6.085-3.694 9.476-.476 2.407-.383 4.88-.29 7.317.979 9.16 3.112 18.164 4.008 27.334-6.85-.492-13.697-1.015-20.558-1.365q.002-7.164.004-14.33c.09-.538-.197-.944-.593-1.264l-.36-.54c-3.7.034-7.406-.03-11.11.034q-.43.52-.899.999c-.073 4.906-.01 9.812-.03 14.719-3.685.13-7.366-.15-11.048-.05-3.548.113-7.096.136-10.644.126-.087-5.152.592-10.288 1.487-15.355.956-4.68 2.1-9.393 4.145-13.723.492.629.722 1.414 1.018 2.147.393-.39.799-.77 1.248-1.099-.246.67-.569 1.312-.752 2 .343 1.379.995 2.663 1.315 4.048l.775-.36c-.602 1.968.34 3.878.63 5.802.366 2.304.745 4.66.233 6.974 2.15-2.766 2.892-6.354 3.192-9.776.16-4.025-.56-8.292-2.936-11.634.403-.08.805-.156 1.208-.24.067.164.197.497.263.66 1.012.482 1.987 1.038 2.97 1.574.106-.473.209-.949.325-1.421.127.632.237 1.271.353 1.907 1.375 1.015 2.74 2.06 3.895 3.329.243-.307.479-.62.725-.926l.067 1.062c.49 1.415 1.528 2.52 2.566 3.558.939.906 1.498 2.1 2.18 3.2.047-2.953.41-6.039-.822-8.818-1.637-4.184-5.728-6.774-9.876-8.009.55-.34 1.145-.596 1.741-.835l-.689-.939c.45.256.889.54 1.375.722 1.285-.253 2.526-.725 3.844-.825-.14-.293-.276-.586-.419-.879 1.172.776 2.596.37 3.895.403 1.075-.03 2.117.263 3.105.656-2.45-3.28-6.887-4.178-10.758-4.028-2.144-.08-4.2.572-6.31.796.285-.766.608-1.515 1.004-2.23l-.576-.28c.979-.044 1.598-.842 2.354-1.345a15.4 15.4 0 0 1 4.79-2.204c-2.36-1.434-5.48-1.52-7.91-.21-1.793.923-3.245 2.397-4.39 4.042-1.368-2.25-3.355-4.184-5.865-5.09-2.593-.958-5.399-1.255-8.148-1.131.959.659 2.16.838 3.142 1.47 1.458.696 2.583 1.915 4.048 2.587.52 1.248 1.375 2.63 2.909 2.583q-.551.104-1.102.213.545 1.12 1.039 2.264c-2.783-2.633-6.391-4.624-10.292-4.717-5.23-.226-10.18 2.456-13.874 5.978 2-.722 4.144-.682 6.228-.952 1.757-.173 3.681.406 5.28-.592-.084.21-.247.625-.327.835 1.138.213 2.277.45 3.365.862.466.316.892-.113 1.278-.33-.4.693.16 1.076.656 1.449-4.137.153-8.278 1.597-11.397 4.363-1.714 1.525-3.126 3.499-3.642 5.762 1.678-1.025 3.332-2.1 5.14-2.896.918-.33 1.391-1.231 1.987-1.937.023.28.073.839.096 1.118 1.242-.366 2.517-.619 3.812-.695.346-.526.685-1.062 1.015-1.598-.003.57-.276 1.265.373 1.601-2.753 2.347-4.917 5.472-5.735 9.03a33.2 33.2 0 0 0-.743 7.846c.979-2.117 2.097-4.187 3.609-5.985 1.334-1.747 3.425-3.122 3.614-5.509q.266.629.54 1.252c1.318-1.252 2.802-2.303 4.28-3.349.67-.382.513-1.224.626-1.864q.355.52.709 1.042a28 28 0 0 1 3.405-1.88c-4.763 9.606-7.116 20.238-7.979 30.87-2.889-.127-5.761.269-8.644.339-4.394.293-8.784.582-13.168 1.021.61-6.8 2.037-13.5 3.042-20.25.573-4.115 1.418-8.262.94-12.43-.32-4.077-1.905-7.952-4.032-11.407 4.41-4.214 8.918-8.325 13.268-12.602 5.023 2.034 10.705 3.419 16.05 1.85m37.704 6.095c-2.497.16-4.93 1.548-6.202 3.722-1.231 1.964-1.537 4.49-.749 6.674.982 2.995 3.958 5.152 7.084 5.312 4.08.226 7.992-3.202 8.128-7.32.496-4.55-3.718-8.79-8.261-8.388"/><path d="M159.168 90.186q1.543-.007 3.086.017c-.02 4.74-.004 9.48-.007 14.22q-1.537 0-3.066-.024c-.006-4.736.014-9.476-.013-14.213M164.534 90.18c1.028.003 2.06.006 3.092.02-.036 4.816-.007 9.632-.017 14.449a118 118 0 0 0-3.068-.097c-.03-4.79 0-9.58-.007-14.373"/></g><g fill="#fbed00"><path d="M173.668 57.35c4.543-.403 8.757 3.837 8.261 8.388-.136 4.117-4.047 7.545-8.128 7.32-3.126-.16-6.102-2.318-7.084-5.313-.788-2.184-.482-4.71.75-6.674 1.27-2.174 3.704-3.562 6.2-3.722M157.817 88.595c3.704-.063 7.41 0 11.11-.033l.36.539c.396.32.682.726.593 1.265 0 4.776-.004 9.553-.004 14.33-.023 4.982.044 9.965-.026 14.948a39 39 0 0 1-.227 1.039c-.692-.113-1.384-.207-2.077-.313a71 71 0 0 0 .06-.839c.01-4.96 0-9.923.003-14.882.01-4.817-.02-9.633.017-14.45-1.032-.013-2.064-.016-3.092-.02.007 4.794-.023 9.583.007 14.373-.174 4.883.13 9.776-.08 14.663-.04.47-.077.942-.143 1.411a50 50 0 0 1-2.107-.23c.006-.286.023-.858.03-1.145.013-4.943 0-9.886.006-14.828.003-4.74-.013-9.48.007-14.22a159 159 0 0 0-3.086-.017l-.203.003c.023 9.044-.007 18.088.017 27.135-.04 1.115.25 2.324-.303 3.355a69 69 0 0 1-1.85-.306c.01-.293.032-.885.046-1.178.03-4.96.003-9.923.013-14.882.02-4.907-.043-9.813.03-14.72q.469-.479.899-.998"/></g><g fill="#72bf44"><path d="m158.965 90.19.203-.004c.027 4.737.007 9.477.013 14.213.014 4.927-.033 9.856.024 14.786q1.518.025 3.035.066c-.006.287-.023.86-.03 1.145-6.46 6.168-12.768 12.496-19.116 18.784l-.615-.093a57 57 0 0 1-1.671-3.509c6.074-4.823 11.92-9.926 17.87-14.899.553-1.031.264-2.24.304-3.355-.024-9.047.006-18.09-.017-27.135"/><path d="M136.46 121.195a113.3 113.3 0 0 1 20.415-2c-.014.293-.037.885-.047 1.178-1.624.62-3.115 1.525-4.696 2.24-4.647 2.084-9.031 4.707-13.668 6.817-.832-2.7-1.534-5.445-2.004-8.235M164.46 119.215q1.575.16 3.146.316a71 71 0 0 1-.06.839c-3.598 7.033-7.472 13.92-11.174 20.9-2.157 1.208-4.42 2.234-6.54 3.518l-.483-.14c.942-2.12 2.513-3.867 3.628-5.888 2.906-4.726 5.835-9.44 8.84-14.1.823-1.351 1.821-2.6 2.5-4.034.067-.47.104-.942.144-1.411M169.85 119.644c5.861.633 11.686 1.605 17.398 3.082-1.874 2.683-4.427 4.797-7.083 6.671-4.324 3.019-9.084 5.359-13.934 7.403.267-.806.46-1.631.623-2.463.899-4.56 2.11-9.05 2.966-13.618l-.197-.036a39 39 0 0 0 .227-1.039M115.104 128.019c4.444-2.187 9.137-3.841 13.924-5.103a82 82 0 0 0 2.037 10.332 48 48 0 0 0-3.725 1.897l-.12.067c-4.23-2.047-8.411-4.274-12.116-7.193"/></g><g fill="#0072bc"><path d="M135.196 104.39c3.548.01 7.096-.014 10.644-.127 3.682-.1 7.363.18 11.048.05-.01 4.96.017 9.922-.013 14.882-6.847.046-13.684.719-20.415 2-1.068-5.532-1.437-11.18-1.264-16.806M159.181 104.4q1.528.024 3.066.023c-.007 4.942.007 9.885-.007 14.828a308 308 0 0 0-3.035-.066c-.057-4.93-.01-9.86-.024-14.786M119.864 105.072c2.883-.07 5.755-.466 8.644-.34-.17 6.061-.336 12.166.52 18.184-4.787 1.262-9.48 2.916-13.924 5.103-4.4-3.285-7.982-8.112-8.434-13.727-.496-2.72-.277-5.476.026-8.199 4.384-.439 8.774-.728 13.168-1.021M164.54 104.552c1.022.02 2.048.05 3.07.097-.004 4.96.006 9.922-.004 14.882q-1.572-.156-3.145-.316c.21-4.887-.094-9.78.08-14.663M169.876 104.695c6.86.35 13.707.873 20.558 1.365.313 1.738.173 3.512.21 5.27.076 4.014-.976 8.144-3.396 11.396-5.712-1.477-11.537-2.45-17.398-3.082.07-4.983.003-9.966.026-14.949"/></g><g fill="#5ea14d"><path d="M152.132 122.613c1.58-.715 3.072-1.62 4.696-2.24.616.113 1.232.21 1.85.306-5.95 4.973-11.796 10.076-17.87 14.9-.92-1.995-1.675-4.058-2.344-6.149 4.637-2.11 9.02-4.733 13.668-6.817M162.21 120.396c.703.097 1.405.164 2.108.23-.68 1.435-1.678 2.683-2.5 4.034-3.006 4.66-5.935 9.374-8.841 14.1-1.115 2.02-2.686 3.768-3.628 5.889l.482.14c-.499.269-1.065.978-1.657.539-1.039-.616-2.19-1.112-3.066-1.954-1.015-1.338-1.787-2.843-2.63-4.287l.616.093c6.348-6.288 12.656-12.616 19.117-18.784M167.546 120.37c.693.106 1.385.2 2.077.313l.197.036c-.856 4.567-2.067 9.057-2.966 13.618a20 20 0 0 1-.623 2.463c-3.255 1.548-6.557 3.019-9.859 4.47 3.702-6.98 7.576-13.867 11.174-20.9M127.34 135.145a48 48 0 0 1 3.725-1.897c.406 1.411.912 2.796 1.285 4.218-1.688-.733-3.415-1.399-5.01-2.32"/></g></svg>